#!OML:ASF F:\VICON\USERDATA\INSTALL\SteveWalk\SteveWalk.ASF
:FULLY-SPECIFIED
:DEGREES
152
root 0.669704 15.8931 -10.8852 18.3441 -3.27244 1.30511
lowerback -17.0776 1.38576 -3.79555
upperback -4.95774 2.50498 -0.773916
thorax 4.12875 1.22748 1.83416
lowerneck -7.21735 -1.86959 -0.905844
upperneck 12.4194 -2.54833 1.00926
head 4.93938 -1.22645 0.298557
rclavicle -1.08555e-015 7.35503e-015
rhumerus -22.7179 6.17229 -83.1517
rradius 67.49
rwrist -14.8702
rhand -18.8135 -30.4622
rfingers 7.12502
rthumb 7.48514 -60.3097
lclavicle -1.08555e-015 7.35503e-015
lhumerus -70.0081 32.0628 36.3497
lradius 8.90401
lwrist -56.0437
lhand -13.2191 -14.0521
lfingers 7.12502
lthumb 12.882 15.5303
rfemur 0.404545 -2.6412 18.5689
rtibia 31.2943
rfoot -2.96759 21.423
rtoes -2.31209
lfemur -52.1488 0.610446 -22.1599
ltibia 29.8186
lfoot -0.934063 -2.85073
ltoes -18.6371
153
root 0.666867 15.8942 -10.6395 18.2045 -3.10145 1.80295
lowerback -16.7863 1.2798 -4.45005
upperback -5.02153 2.47339 -1.0569
thorax 3.89052 1.21691 1.88639
lowerneck -7.46163 -2.00306 -0.975541
upperneck 12.6593 -2.78509 1.48332
head 5.06504 -1.31315 0.437524
rclavicle 2.91965e-014 -5.76476e-015
rhumerus -24.426 5.31307 -83.5451
rradius 67.7802
rwrist -14.9209
rhand -19.2197 -30.7933
rfingers 7.12502
rthumb 7.0931 -60.6545
lclavicle 2.91965e-014 -5.76476e-015
lhumerus -69.9603 32.3528 35.6374
lradius 8.85989
lwrist -57.1782
lhand -12.2302 -13.1006
lfingers 7.12502
lthumb 13.8351 16.4193
rfemur -0.678307 -2.72265 18.0281
rtibia 34.2692
rfoot 1.34589 20.786
rtoes -2.05849
lfemur -52.257 0.144352 -22.6031
ltibia 31.8675
lfoot -1.70407 -2.70902
ltoes -17.6733
154
root 0.668166 15.9039 -10.3924 18.0575 -2.9959 2.26183
lowerback -16.5503 1.18023 -5.05139
upperback -5.08561 2.43659 -1.2973
thorax 3.68204 1.20427 1.95469
lowerneck -7.23196 -2.11556 -1.16068
upperneck 12.4827 -2.98656 2.03663
head 4.98546 -1.38739 0.629052
rclavicle 5.59703e-015 5.96354e-016
rhumerus -25.8142 4.69851 -83.9097
rradius 67.4585
rwrist -15.1043
rhand -19.1291 -31.7522
rfingers 7.12502
rthumb 7.18057 -61.6104
lclavicle 5.59703e-015 5.96354e-016
lhumerus -70.0699 32.6409 34.8515
lradius 8.99727
lwrist -57.9612
lhand -10.5649 -12.4664
lfingers 7.12502
lthumb 15.4396 16.9369
rfemur -2.02292 -2.89829 17.3956
rtibia 37.4327
rfoot 6.05382 19.8345
rtoes -2.18702
lfemur -52.1221 -0.398625 -22.9665
ltibia 33.6991
lfoot -2.62485 -2.89697
ltoes -14.6068
155
root 0.671269 15.9137 -10.1532 17.8432 -2.81711 2.55368
lowerback -16.1787 1.10944 -5.46309
upperback -5.1361 2.39131 -1.4741
thorax 3.4223 1.18987 1.97798
lowerneck -6.70098 -2.30485 -1.23304
upperneck 11.908 -3.26936 2.37901
head 4.73042 -1.51614 0.737197
rclavicle -3.28927e-014 2.78299e-015
rhumerus -27.0871 4.29189 -84.1952
rradius 66.71
rwrist -15.338
rhand -18.597 -32.7759
rfingers 7.12502
rthumb 7.6941 -62.616
lclavicle -3.28927e-014 2.78299e-015
lhumerus -70.1249 32.9955 34.1365
lradius 9.11859
lwrist -58.6844
lhand -9.32188 -12.2633
lfingers 7.12502
lthumb 16.6366 17.0437
rfemur -3.41125 -2.97528 16.9579
rtibia 40.7987
rfoot 9.34205 19.3285
rtoes -5.12318
lfemur -51.7847 -0.978197 -23.1322
ltibia 35.1432
lfoot -3.40466 -3.26751
ltoes -14.1823
156
root 0.675593 15.9253 -9.91969 17.5771 -2.80189 3.13165
lowerback -15.8284 0.979674 -6.22452
upperback -5.04797 2.3252 -1.64339
thorax 3.30577 1.15983 2.20545
lowerneck -6.86256 -2.37695 -1.36789
upperneck 11.8006 -3.37526 2.59849
head 4.73269 -1.56032 0.818727
rclavicle 6.66084e-015 -2.78299e-015
rhumerus -28.1902 4.00226 -84.4431
rradius 65.9022
rwrist -15.8042
rhand -18.9795 -33.1977
rfingers 7.12502
rthumb 7.32497 -63.0509
lclavicle 6.66084e-015 -2.78299e-015
lhumerus -70.2472 33.6582 33.4462
lradius 9.27392
lwrist -59.2618
lhand -8.98994 -12.2924
lfingers 7.12502
lthumb 16.9561 16.9875
rfemur -4.88655 -2.90728 16.1521
rtibia 44.2731
rfoot 12.1088 19.7564
rtoes -4.79359
lfemur -51.2116 -1.36076 -23.8012
ltibia 36.2325
lfoot -4.28198 -3.2518
ltoes -13.1705
157
root 0.683424 15.9417 -9.68468 17.3969 -2.95676 3.71448
lowerback -15.756 0.846654 -6.93745
upperback -4.84204 2.27173 -1.79809
thorax 3.46406 1.12396 2.43398
lowerneck -7.37982 -2.30203 -1.42684
upperneck 11.778 -3.27535 2.69975
head 4.81354 -1.50339 0.859867
rclavicle 7.92964e-015 6.36111e-015
rhumerus -29.0308 3.7308 -84.7909
rradius 65.2842
rwrist -16.4229
rhand -19.6368 -33.8772
rfingers 7.12502
rthumb 6.6904 -63.7515
lclavicle 7.92964e-015 6.36111e-015
lhumerus -70.455 34.5232 32.6513
lradius 9.5198
lwrist -59.487
lhand -9.01664 -13.1754
lfingers 7.12502
lthumb 16.9304 16.1067
rfemur -6.62676 -2.75242 15.2962
rtibia 47.7409
rfoot 15.3317 20.2258
rtoes -3.07972
lfemur -50.475 -1.6021 -24.5404
ltibia 37.0253
lfoot -5.17681 -2.93901
ltoes -11.3663
158
root 0.688564 15.9682 -9.4514 17.2589 -3.08604 4.06905
lowerback -15.6435 0.723956 -7.34989
upperback -4.705 2.17576 -1.89889
thorax 3.54396 1.07008 2.54067
lowerneck -7.58106 -2.21882 -1.49281
upperneck 11.5129 -3.15778 2.78983
head 4.7658 -1.44339 0.904794
rclavicle 2.17421e-016 -9.54166e-015
rhumerus -29.7299 3.79496 -85.2412
rradius 64.4436
rwrist -17.2993
rhand -19.7168 -34.2259
rfingers 7.12502
rthumb 6.61324 -64.1026
lclavicle 2.17421e-016 -9.54166e-015
lhumerus -70.8963 35.2657 31.6447
lradius 9.92163
lwrist -59.2809
lhand -8.47927 -14.1949
lfingers 7.12502
lthumb 17.4476 15.042
rfemur -8.42788 -2.51415 14.79
rtibia 51.1383
rfoot 18.6514 19.8315
rtoes -4.76882
lfemur -49.6448 -1.7694 -25.0306
ltibia 37.5924
lfoot -6.00416 -2.67661
ltoes -11.7553
